<svg width="24" height="24" viewBox="0 0 24 24" fill="none" xmlns="http://www.w3.org/2000/svg">
<path d="M4.24277 3.25H2.8707L2.77792 3.25488C2.55982 3.27767 2.37591 3.37126 2.22617 3.53564C2.07643 3.70003 2.00156 3.89453 2.00156 4.11914C2.00156 4.36003 2.08701 4.56592 2.2579 4.73682C2.4288 4.90771 2.63307 4.99316 2.8707 4.99316H4.24277L4.30136 4.99805C4.34042 5.00781 4.37379 5.02653 4.40146 5.0542C4.42913 5.08187 4.44785 5.11523 4.45761 5.1543L7.57285 14.9053L7.62167 15.0518C7.70305 15.2796 7.81699 15.4863 7.96347 15.6719C8.10995 15.8607 8.27923 16.0218 8.47128 16.1553C8.66334 16.2887 8.87167 16.3929 9.09628 16.4678C9.32415 16.5394 9.56178 16.5752 9.80917 16.5752L17.9732 16.5703C18.2206 16.5573 18.4566 16.5052 18.6812 16.4141C18.9059 16.3229 19.1101 16.2025 19.294 16.0527C19.478 15.903 19.6366 15.7272 19.7701 15.5254C19.9068 15.3236 20.0077 15.1022 20.0728 14.8613L21.9723 7.90332L21.9918 7.80566C22.0113 7.67546 22.0032 7.55013 21.9674 7.42969C21.9316 7.30924 21.8738 7.20264 21.794 7.10986C21.7143 7.01709 21.6174 6.94303 21.5035 6.8877C21.3896 6.8291 21.2643 6.7998 21.1275 6.7998H7.00156L6.13242 4.66113L6.08359 4.52441C6.01197 4.33561 5.91432 4.16146 5.79062 4.00195C5.67018 3.8457 5.52939 3.71224 5.36826 3.60156C5.20712 3.49089 5.03053 3.40462 4.83847 3.34277C4.64967 3.28092 4.4511 3.25 4.24277 3.25ZM12.4654 19.2119C12.4654 19.0101 12.428 18.8197 12.3531 18.6406C12.275 18.4648 12.17 18.311 12.0382 18.1792C11.9063 18.0474 11.7509 17.9424 11.5719 17.8643C11.3961 17.7894 11.2073 17.752 11.0055 17.752C10.8036 17.752 10.6148 17.7894 10.4391 17.8643C10.26 17.9424 10.1046 18.0474 9.97275 18.1792C9.84091 18.311 9.73593 18.4648 9.65781 18.6406C9.58294 18.8197 9.5455 19.0101 9.5455 19.2119C9.5455 19.4137 9.58294 19.6025 9.65781 19.7783C9.73593 19.9574 9.84091 20.1128 9.97275 20.2446C10.1046 20.3765 10.26 20.4798 10.4391 20.5547C10.6148 20.6328 10.8036 20.6719 11.0055 20.6719C11.2073 20.6719 11.3961 20.6328 11.5719 20.5547C11.7509 20.4798 11.9063 20.3765 12.0382 20.2446C12.17 20.1128 12.275 19.9574 12.3531 19.7783C12.428 19.6025 12.4654 19.4137 12.4654 19.2119ZM18.11 19.2119C18.11 19.0101 18.0709 18.8197 17.9928 18.6406C17.9179 18.4648 17.8145 18.311 17.6827 18.1792C17.5509 18.0474 17.3954 17.9424 17.2164 17.8643C17.0406 17.7894 16.8518 17.752 16.65 17.752C16.4482 17.752 16.2577 17.7894 16.0787 17.8643C15.9029 17.9424 15.7491 18.0474 15.6173 18.1792C15.4854 18.311 15.3805 18.4648 15.3023 18.6406C15.2275 18.8197 15.19 19.0101 15.19 19.2119C15.19 19.4137 15.2275 19.6025 15.3023 19.7783C15.3805 19.9574 15.4854 20.1128 15.6173 20.2446C15.7491 20.3765 15.9029 20.4798 16.0787 20.5547C16.2577 20.6328 16.4482 20.6719 16.65 20.6719C16.8518 20.6719 17.0406 20.6328 17.2164 20.5547C17.3954 20.4798 17.5509 20.3765 17.6827 20.2446C17.8145 20.1128 17.9179 19.9574 17.9928 19.7783C18.0709 19.6025 18.11 19.4137 18.11 19.2119ZM7.51913 8.54297H19.9898L18.3932 14.4023L18.3639 14.4805C18.315 14.5879 18.2426 14.6742 18.1466 14.7393C18.0505 14.8044 17.9423 14.8369 17.8219 14.8369L9.72128 14.8271C9.61061 14.8109 9.51132 14.7653 9.42343 14.6904C9.33554 14.6156 9.27532 14.5228 9.24277 14.4121L7.51913 8.54297Z" fill="white"/>
</svg>
