<svg width="2223" height="512" viewBox="0 0 2223 512" fill="none" xmlns="http://www.w3.org/2000/svg">
<path d="M740.323 210.567C739.47 201.973 735.813 195.297 729.35 190.538C722.886 185.78 714.115 183.401 703.036 183.401C695.507 183.401 689.151 184.466 683.966 186.597C678.781 188.656 674.804 191.533 672.034 195.226C669.335 198.919 667.986 203.109 667.986 207.797C667.844 211.703 668.661 215.112 670.436 218.024C672.283 220.936 674.804 223.457 678 225.588C681.196 227.648 684.889 229.459 689.08 231.021C693.27 232.513 697.744 233.791 702.503 234.857L722.105 239.544C731.622 241.675 740.358 244.516 748.313 248.067C756.267 251.618 763.156 255.986 768.98 261.17C774.804 266.355 779.314 272.463 782.51 279.494C785.777 286.526 787.446 294.587 787.517 303.678C787.446 317.03 784.037 328.607 777.29 338.408C770.614 348.138 760.955 355.702 748.313 361.099C735.742 366.426 720.578 369.089 702.823 369.089C685.209 369.089 669.868 366.391 656.8 360.993C643.803 355.595 633.646 347.605 626.331 337.023C619.087 326.369 615.287 313.195 614.932 297.499H659.57C660.067 304.814 662.162 310.922 665.855 315.822C669.619 320.652 674.626 324.31 680.876 326.795C687.198 329.21 694.335 330.418 702.29 330.418C710.102 330.418 716.885 329.281 722.638 327.009C728.462 324.736 732.972 321.575 736.168 317.527C739.364 313.479 740.962 308.827 740.962 303.571C740.962 298.67 739.506 294.551 736.594 291.213C733.753 287.875 729.563 285.034 724.023 282.69C718.554 280.347 711.842 278.216 703.888 276.298L680.131 270.332C661.736 265.858 647.212 258.862 636.558 249.345C625.905 239.828 620.614 227.008 620.685 210.886C620.614 197.676 624.129 186.135 631.232 176.263C638.405 166.391 648.242 158.685 660.742 153.145C673.242 147.605 687.446 144.835 703.355 144.835C719.548 144.835 733.682 147.605 745.756 153.145C757.901 158.685 767.347 166.391 774.094 176.263C780.841 186.135 784.321 197.57 784.534 210.567H740.323Z" fill="white"/>
<path d="M885.628 369.196C869.079 369.196 854.768 365.68 842.694 358.649C830.691 351.547 821.423 341.675 814.889 329.033C808.355 316.32 805.088 301.582 805.088 284.821C805.088 267.918 808.355 253.145 814.889 240.503C821.423 227.79 830.691 217.918 842.694 210.886C854.768 203.784 869.079 200.233 885.628 200.233C902.176 200.233 916.451 203.784 928.454 210.886C940.528 217.918 949.832 227.79 956.366 240.503C962.9 253.145 966.167 267.918 966.167 284.821C966.167 301.582 962.9 316.32 956.366 329.033C949.832 341.675 940.528 351.547 928.454 358.649C916.451 365.68 902.176 369.196 885.628 369.196ZM885.841 334.04C893.369 334.04 899.655 331.909 904.697 327.648C909.74 323.315 913.539 317.42 916.096 309.963C918.724 302.506 920.038 294.018 920.038 284.501C920.038 274.984 918.724 266.497 916.096 259.04C913.539 251.582 909.74 245.687 904.697 241.355C899.655 237.023 893.369 234.857 885.841 234.857C878.241 234.857 871.849 237.023 866.664 241.355C861.551 245.687 857.68 251.582 855.052 259.04C852.495 266.497 851.217 274.984 851.217 284.501C851.217 294.018 852.495 302.506 855.052 309.963C857.68 317.42 861.551 323.315 866.664 327.648C871.849 331.909 878.241 334.04 885.841 334.04Z" fill="white"/>
<path d="M1094.61 296.327V202.364H1140V366H1096.42V336.277H1094.72C1091.03 345.865 1084.88 353.571 1076.29 359.395C1067.77 365.219 1057.36 368.131 1045.08 368.131C1034.14 368.131 1024.51 365.645 1016.2 360.673C1007.89 355.702 1001.4 348.635 996.709 339.473C992.092 330.311 989.748 319.338 989.677 306.554V202.364H1035.06V298.457C1035.13 308.116 1037.72 315.751 1042.84 321.362C1047.95 326.973 1054.81 329.778 1063.4 329.778C1068.87 329.778 1073.98 328.535 1078.74 326.05C1083.5 323.493 1087.33 319.729 1090.25 314.757C1093.23 309.785 1094.68 303.642 1094.61 296.327Z" fill="white"/>
<path d="M1215.68 271.398V366H1170.3V202.364H1213.55V231.234H1215.47C1219.09 221.717 1225.16 214.189 1233.69 208.649C1242.21 203.038 1252.54 200.233 1264.69 200.233C1276.05 200.233 1285.96 202.719 1294.41 207.69C1302.86 212.662 1309.43 219.764 1314.12 228.997C1318.81 238.159 1321.15 249.097 1321.15 261.81V366H1275.77V269.906C1275.84 259.892 1273.28 252.08 1268.1 246.469C1262.91 240.787 1255.77 237.946 1246.68 237.946C1240.58 237.946 1235.18 239.26 1230.49 241.888C1225.87 244.516 1222.25 248.351 1219.62 253.393C1217.07 258.365 1215.75 264.366 1215.68 271.398Z" fill="white"/>
<path d="M1411.22 368.663C1398.79 368.663 1387.53 365.467 1377.45 359.075C1367.43 352.612 1359.48 343.131 1353.58 330.631C1347.76 318.06 1344.85 302.648 1344.85 284.395C1344.85 265.645 1347.87 250.055 1353.9 237.626C1359.94 225.126 1367.96 215.787 1377.98 209.608C1388.06 203.358 1399.11 200.233 1411.11 200.233C1420.27 200.233 1427.91 201.795 1434.02 204.92C1440.2 207.974 1445.17 211.81 1448.93 216.426C1452.77 220.972 1455.68 225.446 1457.67 229.849H1459.05V147.818H1504.33V366H1459.58V339.793H1457.67C1455.54 344.338 1452.52 348.848 1448.61 353.322C1444.78 357.726 1439.77 361.384 1433.59 364.295C1427.48 367.207 1420.02 368.663 1411.22 368.663ZM1425.6 332.548C1432.92 332.548 1439.09 330.56 1444.14 326.582C1449.25 322.534 1453.16 316.888 1455.86 309.643C1458.63 302.399 1460.01 293.912 1460.01 284.182C1460.01 274.452 1458.66 266 1455.96 258.827C1453.26 251.653 1449.36 246.114 1444.24 242.207C1439.13 238.301 1432.92 236.348 1425.6 236.348C1418.14 236.348 1411.86 238.372 1406.74 242.42C1401.63 246.469 1397.76 252.08 1395.13 259.253C1392.5 266.426 1391.19 274.736 1391.19 284.182C1391.19 293.699 1392.5 302.115 1395.13 309.43C1397.83 316.675 1401.7 322.357 1406.74 326.476C1411.86 330.524 1418.14 332.548 1425.6 332.548Z" fill="white"/>
<path d="M1599.93 366V147.818H1687.29C1703.34 147.818 1716.72 150.197 1727.45 154.956C1738.17 159.714 1746.23 166.32 1751.63 174.771C1757.03 183.152 1759.73 192.811 1759.73 203.749C1759.73 212.271 1758.02 219.764 1754.62 226.227C1751.21 232.619 1746.52 237.875 1740.55 241.994C1734.66 246.043 1727.91 248.919 1720.31 250.624V252.754C1728.62 253.109 1736.4 255.453 1743.64 259.785C1750.96 264.118 1756.89 270.19 1761.43 278.003C1765.98 285.744 1768.25 294.977 1768.25 305.702C1768.25 317.278 1765.38 327.612 1759.62 336.703C1753.94 345.723 1745.52 352.861 1734.37 358.116C1723.22 363.372 1709.48 366 1693.15 366H1599.93ZM1646.06 328.287H1683.66C1696.52 328.287 1705.89 325.837 1711.79 320.936C1717.68 315.964 1720.63 309.359 1720.63 301.121C1720.63 295.084 1719.18 289.757 1716.26 285.141C1713.35 280.524 1709.2 276.902 1703.8 274.274C1698.47 271.646 1692.12 270.332 1684.73 270.332H1646.06V328.287ZM1646.06 239.118H1680.25C1686.58 239.118 1692.19 238.017 1697.09 235.815C1702.06 233.543 1705.96 230.347 1708.81 226.227C1711.72 222.108 1713.17 217.172 1713.17 211.419C1713.17 203.535 1710.37 197.179 1704.76 192.349C1699.22 187.52 1691.33 185.105 1681.11 185.105H1646.06V239.118Z" fill="white"/>
<path d="M1865.99 369.196C1849.16 369.196 1834.67 365.787 1822.52 358.969C1810.45 352.08 1801.15 342.349 1794.61 329.778C1788.08 317.136 1784.81 302.186 1784.81 284.928C1784.81 268.095 1788.08 253.322 1794.61 240.609C1801.15 227.896 1810.34 217.989 1822.2 210.886C1834.14 203.784 1848.13 200.233 1864.18 200.233C1874.97 200.233 1885.02 201.973 1894.33 205.453C1903.7 208.862 1911.87 214.011 1918.83 220.901C1925.86 227.79 1931.33 236.455 1935.24 246.895C1939.14 257.264 1941.1 269.409 1941.1 283.33V295.794H1802.92V267.669H1898.38C1898.38 261.135 1896.96 255.347 1894.11 250.304C1891.27 245.261 1887.33 241.32 1882.29 238.479C1877.32 235.567 1871.53 234.111 1864.92 234.111C1858.03 234.111 1851.93 235.709 1846.6 238.905C1841.34 242.03 1837.23 246.256 1834.24 251.582C1831.26 256.838 1829.73 262.697 1829.66 269.16V295.901C1829.66 303.997 1831.15 310.993 1834.14 316.888C1837.19 322.783 1841.49 327.328 1847.03 330.524C1852.57 333.72 1859.14 335.318 1866.74 335.318C1871.78 335.318 1876.39 334.608 1880.58 333.187C1884.77 331.767 1888.36 329.636 1891.34 326.795C1894.33 323.955 1896.6 320.474 1898.16 316.355L1940.14 319.125C1938.01 329.21 1933.64 338.017 1927.03 345.545C1920.5 353.003 1912.05 358.827 1901.68 363.017C1891.38 367.136 1879.48 369.196 1865.99 369.196Z" fill="white"/>
<path d="M2011.37 369.089C2000.93 369.089 1991.63 367.278 1983.46 363.656C1975.29 359.963 1968.83 354.53 1964.07 347.357C1959.39 340.112 1957.04 331.092 1957.04 320.297C1957.04 311.206 1958.71 303.571 1962.05 297.392C1965.39 291.213 1969.93 286.241 1975.69 282.477C1981.44 278.713 1987.97 275.872 1995.29 273.955C2002.67 272.037 2010.42 270.687 2018.51 269.906C2028.03 268.912 2035.7 267.989 2041.52 267.136C2047.35 266.213 2051.57 264.864 2054.2 263.088C2056.83 261.312 2058.14 258.685 2058.14 255.205V254.565C2058.14 247.818 2056.01 242.598 2051.75 238.905C2047.56 235.212 2041.59 233.365 2033.85 233.365C2025.69 233.365 2019.19 235.176 2014.36 238.798C2009.53 242.349 2006.33 246.824 2004.77 252.222L1962.79 248.812C1964.93 238.869 1969.12 230.276 1975.37 223.031C1981.62 215.716 1989.68 210.105 1999.55 206.199C2009.49 202.222 2021 200.233 2034.07 200.233C2043.16 200.233 2051.86 201.298 2060.17 203.429C2068.55 205.56 2075.97 208.862 2082.43 213.337C2088.97 217.811 2094.12 223.564 2097.88 230.595C2101.64 237.555 2103.53 245.901 2103.53 255.631V366H2060.49V343.308H2059.21C2056.58 348.422 2053.06 352.932 2048.66 356.838C2044.26 360.673 2038.97 363.692 2032.79 365.893C2026.61 368.024 2019.47 369.089 2011.37 369.089ZM2024.37 337.768C2031.05 337.768 2036.94 336.455 2042.06 333.827C2047.17 331.128 2051.18 327.506 2054.09 322.96C2057.01 318.415 2058.46 313.266 2058.46 307.513V290.148C2057.04 291.071 2055.09 291.923 2052.6 292.705C2050.19 293.415 2047.45 294.089 2044.4 294.729C2041.35 295.297 2038.29 295.83 2035.24 296.327C2032.18 296.753 2029.41 297.143 2026.93 297.499C2021.6 298.28 2016.95 299.523 2012.97 301.227C2009 302.932 2005.91 305.24 2003.7 308.152C2001.5 310.993 2000.4 314.544 2000.4 318.805C2000.4 324.984 2002.64 329.707 2007.11 332.974C2011.66 336.17 2017.41 337.768 2024.37 337.768Z" fill="white"/>
<path d="M2219.77 202.364V236.455H2121.23V202.364H2219.77ZM2143.6 163.159H2188.99V315.716C2188.99 319.906 2189.63 323.173 2190.9 325.517C2192.18 327.79 2193.96 329.388 2196.23 330.311C2198.57 331.234 2201.27 331.696 2204.33 331.696C2206.46 331.696 2208.59 331.518 2210.72 331.163C2212.85 330.737 2214.48 330.418 2215.62 330.205L2222.76 363.976C2220.48 364.686 2217.29 365.503 2213.17 366.426C2209.05 367.42 2204.04 368.024 2198.15 368.237C2187.21 368.663 2177.62 367.207 2169.38 363.869C2161.22 360.531 2154.86 355.347 2150.31 348.315C2145.77 341.284 2143.53 332.406 2143.6 321.682V163.159Z" fill="white"/>
<path d="M41.9999 243.001C63.6869 243.001 82.5308 259.585 87.5318 280.687L98.7748 330.764C105.134 357.597 143.878 355.882 147.842 328.593L182.585 85.0112C186.657 56.9763 227.125 57.0073 231.153 85.0483L279.922 426.259C284.151 455.689 326.852 455.048 330.194 425.504L336.999 365" stroke="#F5FE51" stroke-width="44" stroke-miterlimit="10" stroke-linecap="round" stroke-linejoin="round"/>
<path d="M345.073 294.001L353.542 219.146C356.211 195.558 390.163 194.667 394.066 218.082L409.754 313.775C413.858 338.403 448.75 339.774 454.774 315.543L461.867 285.443C467.82 261.496 489.323 243.001 513.998 243.001" stroke="#04E088" stroke-width="44" stroke-miterlimit="10" stroke-linecap="round" stroke-linejoin="round"/>
</svg>
