<svg width="24" height="25" viewBox="0 0 24 25" fill="none" xmlns="http://www.w3.org/2000/svg">
<g clip-path="url(#clip0_69_383)">
<path d="M0 10.0977C0 9.22656 0.160156 8.40625 0.480469 7.63671C0.800781 6.86328 1.23926 6.18945 1.7959 5.61523C2.35254 5.04101 3.00586 4.58593 3.75586 4.25C4.50586 3.91796 5.30859 3.75195 6.16406 3.75195C6.71094 3.75195 7.24219 3.82226 7.75781 3.96289C8.27344 4.10742 8.75781 4.3125 9.21094 4.57812C9.66406 4.84375 10.082 5.16796 10.4648 5.55078C10.8438 5.92968 11.1699 6.35351 11.4434 6.82226L11.748 7.33789L12.0586 6.8164L12.2754 6.46484L12.2812 6.45898C12.5664 6.04101 12.8945 5.66406 13.2656 5.32812C13.6328 4.99218 14.0332 4.708 14.4668 4.47558C14.9004 4.24316 15.3574 4.06445 15.8379 3.93945C16.3223 3.81445 16.8203 3.75195 17.332 3.75195C18.1875 3.75195 18.9902 3.91796 19.7402 4.25C20.4902 4.58593 21.1436 5.04101 21.7002 5.61523C22.2568 6.18945 22.6953 6.86328 23.0156 7.63671C23.3359 8.40625 23.4961 9.22656 23.4961 10.0977C23.4961 10.543 23.4531 10.9785 23.3672 11.4043C23.2812 11.8301 23.1553 12.2393 22.9893 12.6318C22.8232 13.0244 22.6191 13.3984 22.377 13.7539C22.1348 14.1055 21.8594 14.4297 21.5508 14.7266L21.5449 14.7383L12.4746 22.9531L12.2871 23.082L12.2344 23.1055C12.0273 23.2031 11.8096 23.2353 11.5811 23.2021C11.3525 23.1689 11.1504 23.0742 10.9746 22.918L1.92188 14.7031L1.61133 14.3809L1.60547 14.375C1.34766 14.0859 1.12109 13.7773 0.925781 13.4492C0.726562 13.1211 0.557617 12.7754 0.418945 12.4121C0.280273 12.0488 0.175781 11.6738 0.105469 11.2871C0.0351562 10.8965 0 10.5 0 10.0977ZM6.16406 5.25195C5.52734 5.25195 4.92578 5.37695 4.35938 5.62695C3.79297 5.87695 3.29785 6.2207 2.87402 6.6582C2.4502 7.0957 2.11523 7.60937 1.86914 8.19921C1.62305 8.78906 1.5 9.42187 1.5 10.0977C1.5 10.4102 1.52734 10.7148 1.58203 11.0117C1.63672 11.3086 1.71582 11.5957 1.81934 11.873C1.92285 12.1504 2.05078 12.4141 2.20312 12.6641C2.35156 12.9141 2.52148 13.1484 2.71289 13.3672L2.96484 13.6309L11.748 21.5937L20.5195 13.6426C20.75 13.416 20.957 13.168 21.1406 12.8984C21.3242 12.6289 21.4795 12.3437 21.6064 12.043C21.7334 11.7422 21.8301 11.4277 21.8965 11.0996C21.9629 10.7754 21.9961 10.4414 21.9961 10.0977C21.9961 9.42187 21.873 8.78906 21.627 8.19921C21.3809 7.60937 21.0459 7.0957 20.6221 6.6582C20.1982 6.2207 19.7031 5.87695 19.1367 5.62695C18.5703 5.37695 17.9688 5.25195 17.332 5.25195C16.9531 5.25195 16.582 5.29882 16.2188 5.39257C15.8555 5.48242 15.5107 5.61523 15.1846 5.79101C14.8584 5.96679 14.5566 6.18164 14.2793 6.43554C13.998 6.68554 13.748 6.9707 13.5293 7.29101L13.3359 7.5957L11.748 10.3086L10.1543 7.58398C9.93945 7.2207 9.6875 6.89453 9.39844 6.60546C9.11328 6.32031 8.79883 6.07714 8.45508 5.87597C8.11133 5.6748 7.74609 5.51953 7.35938 5.41015C6.97266 5.30468 6.57422 5.25195 6.16406 5.25195Z" fill="white"/>
</g>
<defs>
<clipPath id="clip0_69_383">
<rect width="24" height="25" fill="white"/>
</clipPath>
</defs>
</svg>
