<svg width="24" height="25" viewBox="0 0 24 25" fill="none" xmlns="http://www.w3.org/2000/svg">
<g clip-path="url(#clip0_69_384)">
<path d="M14.3613 8.43945C14.2129 8.58398 14.1387 8.75977 14.1387 8.9668C14.1387 9.17383 14.2129 9.35156 14.3613 9.5C14.5059 9.64453 14.6816 9.7168 14.8887 9.7168C15.0957 9.7168 15.2734 9.64453 15.4219 9.5L19.3066 5.60938L15.4219 1.71875C15.2734 1.57422 15.0957 1.50195 14.8887 1.50195C14.6816 1.50195 14.5059 1.57422 14.3613 1.71875C14.2129 1.86719 14.1387 2.04492 14.1387 2.25195C14.1387 2.45898 14.2129 2.63477 14.3613 2.7793L16.4355 4.85938H5.74805C4.95508 4.85938 4.20898 5.00977 3.50977 5.31055C2.81055 5.61133 2.20117 6.02246 1.68164 6.54395C1.16211 7.06543 0.751953 7.67383 0.451172 8.36914C0.150391 9.06836 0 9.81445 0 10.6074V13.5254C0 13.7324 0.0732422 13.9092 0.219727 14.0557C0.366211 14.2021 0.542969 14.2754 0.75 14.2754C0.957031 14.2754 1.13379 14.2021 1.28027 14.0557C1.42676 13.9092 1.5 13.7324 1.5 13.5254V10.6074C1.5 10.0215 1.61133 9.4707 1.83398 8.95508C2.05664 8.43945 2.36035 7.98926 2.74512 7.60449C3.12988 7.21973 3.58008 6.91602 4.0957 6.69336C4.61133 6.4707 5.16211 6.35938 5.74805 6.35938H16.4355L14.3613 8.43945ZM21.0176 11.6328C21.0176 11.4258 20.9443 11.249 20.7979 11.1025C20.6514 10.9561 20.4746 10.8828 20.2676 10.8828C20.0605 10.8828 19.8838 10.9561 19.7373 11.1025C19.5908 11.249 19.5176 11.4258 19.5176 11.6328V14.5449C19.5176 15.1348 19.4062 15.6875 19.1836 16.2031C18.9609 16.7188 18.6572 17.1689 18.2725 17.5537C17.8877 17.9385 17.4375 18.2422 16.9219 18.4648C16.4062 18.6875 15.8555 18.7988 15.2695 18.7988H5.13867L7.50586 16.4316C7.65039 16.2832 7.72266 16.1055 7.72266 15.8984C7.72266 15.6914 7.65039 15.5156 7.50586 15.3711C7.35742 15.2227 7.17969 15.1484 6.97266 15.1484C6.76562 15.1484 6.58984 15.2227 6.44531 15.3711L2.55469 19.2617L6.44531 23.1465C6.58984 23.2949 6.76562 23.3691 6.97266 23.3691C7.17969 23.3691 7.35742 23.2949 7.50586 23.1465C7.65039 23.002 7.72266 22.8262 7.72266 22.6191C7.72266 22.4121 7.65039 22.2344 7.50586 22.0859L5.71289 20.2988H15.2695C16.0625 20.2988 16.8086 20.1484 17.5078 19.8477C18.2031 19.543 18.8115 19.1309 19.333 18.6113C19.8545 18.0918 20.2656 17.4824 20.5664 16.7832C20.8672 16.0879 21.0176 15.3418 21.0176 14.5449V11.6328Z" fill="white"/>
</g>
<defs>
<clipPath id="clip0_69_384">
<rect width="24" height="25" fill="white"/>
</clipPath>
</defs>
</svg>
