<svg width="17" height="17" viewBox="0 0 17 17" fill="none" xmlns="http://www.w3.org/2000/svg">
<g clip-path="url(#clip0_69_170)">
<g clip-path="url(#clip1_69_170)">
<path d="M1.65381 16.5469H4.9585V8.54688H7.16553L7.45459 5.78906H4.9585L4.9624 4.41016C4.9624 4.23047 4.97152 4.07161 4.98975 3.93359C5.00798 3.79557 5.05355 3.68034 5.12646 3.58789C5.19938 3.49544 5.30876 3.42448 5.45459 3.375C5.60303 3.32812 5.80485 3.30469 6.06006 3.30469H7.44287V0.546875H5.23584C4.57438 0.546875 4.01449 0.627604 3.55615 0.789062C3.10042 0.953125 2.73193 1.1888 2.45068 1.49609C2.16943 1.80339 1.96631 2.17969 1.84131 2.625C1.71631 3.06771 1.65381 3.57031 1.65381 4.13281V5.78906H0.00146484V8.54688H1.65381V16.5469Z" fill="#707070"/>
</g>
</g>
<defs>
<clipPath id="clip0_69_170">
<rect width="16.2031" height="16" fill="white" transform="translate(0 0.546875)"/>
</clipPath>
<clipPath id="clip1_69_170">
<rect width="16.2031" height="16" fill="white" transform="matrix(1 0 0 -1 0 16.5469)"/>
</clipPath>
</defs>
</svg>
