<svg width="24" height="25" viewBox="0 0 24 25" fill="none" xmlns="http://www.w3.org/2000/svg">
<g clip-path="url(#clip0_69_386)">
<path d="M16.377 6.9043L10.7344 0.886719L5.0918 7.2793C4.95508 7.43555 4.89355 7.61719 4.90723 7.82422C4.9209 8.03125 5.00391 8.20312 5.15625 8.33984C5.3125 8.47656 5.49414 8.53809 5.70117 8.52441C5.9082 8.51074 6.08008 8.42773 6.2168 8.27539L10.002 3.98047V16.0273C10.002 16.2344 10.0752 16.4111 10.2217 16.5576C10.3682 16.7041 10.5449 16.7773 10.752 16.7773C10.959 16.7773 11.1357 16.7041 11.2822 16.5576C11.4287 16.4111 11.502 16.2344 11.502 16.0273V3.89844L15.2871 7.92969C15.4277 8.08203 15.6016 8.16113 15.8086 8.16699C16.0156 8.17285 16.1953 8.10547 16.3477 7.96484C16.4961 7.82422 16.5742 7.65039 16.582 7.44336C16.5898 7.23633 16.5215 7.05664 16.377 6.9043ZM1.5 17.7852C1.5 17.5781 1.42676 17.4014 1.28027 17.2549C1.13379 17.1084 0.957031 17.0352 0.75 17.0352C0.542969 17.0352 0.366211 17.1084 0.219727 17.2549C0.0732422 17.4014 0 17.5781 0 17.7852V21.002L0.00585938 21.166C0.0292969 21.5254 0.117188 21.8633 0.269531 22.1797C0.417969 22.4922 0.615234 22.7646 0.861328 22.9971C1.10742 23.2295 1.39258 23.4141 1.7168 23.5508C2.04102 23.6836 2.38672 23.75 2.75391 23.75L18.9199 23.7441C19.2793 23.7246 19.6172 23.6387 19.9336 23.4863C20.2461 23.334 20.5186 23.1348 20.751 22.8887C20.9834 22.6426 21.166 22.3574 21.2988 22.0332C21.4355 21.709 21.5039 21.3652 21.5039 21.002V17.7852C21.5039 17.5781 21.4307 17.4014 21.2842 17.2549C21.1377 17.1084 20.9609 17.0352 20.7539 17.0352C20.5469 17.0352 20.3701 17.1084 20.2236 17.2549C20.0771 17.4014 20.0039 17.5781 20.0039 17.7852V21.002L19.998 21.125C19.9785 21.2852 19.9336 21.4336 19.8633 21.5703C19.793 21.707 19.7021 21.8252 19.5908 21.9248C19.4795 22.0244 19.3535 22.1035 19.2129 22.1621C19.0684 22.2207 18.9141 22.25 18.75 22.25L2.625 22.2441C2.46875 22.2285 2.32227 22.1855 2.18555 22.1152C2.04883 22.0449 1.92969 21.9541 1.82812 21.8428C1.72656 21.7314 1.64648 21.6035 1.58789 21.459C1.5293 21.3145 1.5 21.1621 1.5 21.002V17.7852Z" fill="white"/>
</g>
<defs>
<clipPath id="clip0_69_386">
<rect width="24" height="25" fill="white"/>
</clipPath>
</defs>
</svg>
