<svg width="17" height="17" viewBox="0 0 17 17" fill="none" xmlns="http://www.w3.org/2000/svg">
<g clip-path="url(#clip0_69_169)">
<g clip-path="url(#clip1_69_169)">
<path d="M7.47021 4.37109C6.93896 4.3737 6.44027 4.47526 5.97412 4.67578C5.50537 4.87891 5.09652 5.15495 4.74756 5.50391C4.3986 5.85286 4.12386 6.26042 3.92334 6.72656C3.72021 7.19531 3.61865 7.69531 3.61865 8.22656C3.61865 8.22917 3.61865 8.23112 3.61865 8.23242C3.61865 8.23372 3.61865 8.23568 3.61865 8.23828C3.61865 8.76953 3.71891 9.26823 3.91943 9.73438C4.11995 10.2005 4.39404 10.6074 4.7417 10.9551C5.08936 11.3027 5.49626 11.5781 5.9624 11.7812C6.43115 11.9818 6.92985 12.082 7.4585 12.082C7.4611 12.082 7.4637 12.082 7.46631 12.082C7.46891 12.082 7.47152 12.082 7.47412 12.082H7.47021C8.00407 12.082 8.50407 11.9805 8.97021 11.7773C9.43896 11.5742 9.84782 11.2982 10.1968 10.9492C10.5457 10.6003 10.8205 10.1927 11.021 9.72656C11.2241 9.25781 11.3257 8.75781 11.3257 8.22656C11.3257 7.70052 11.2241 7.20312 11.021 6.73438C10.8179 6.26823 10.5412 5.86003 10.1909 5.50977C9.84066 5.1595 9.43115 4.88151 8.9624 4.67578C8.49626 4.47266 7.99886 4.37109 7.47021 4.37109ZM7.47021 10.6953C7.13167 10.6953 6.81266 10.6302 6.51318 10.5C6.2137 10.3698 5.95264 10.1934 5.72998 9.9707C5.50732 9.74805 5.33089 9.48698 5.20068 9.1875C5.07048 8.88802 5.00407 8.56771 5.00146 8.22656C5.00407 7.88542 5.07048 7.5651 5.20068 7.26562C5.33089 6.96875 5.50732 6.70833 5.72998 6.48438C5.95264 6.26042 6.2137 6.08333 6.51318 5.95312C6.81266 5.82292 7.13167 5.75781 7.47021 5.75781C7.81136 5.75781 8.13167 5.82292 8.43115 5.95312C8.73063 6.08333 8.9917 6.26042 9.21436 6.48438C9.43701 6.70833 9.61344 6.96875 9.74365 7.26562C9.87386 7.5651 9.94027 7.88542 9.94287 8.22656C9.94027 8.56771 9.87386 8.88802 9.74365 9.1875C9.61344 9.48698 9.43701 9.74805 9.21436 9.9707C8.9917 10.1934 8.73063 10.3698 8.43115 10.5C8.13167 10.6302 7.81266 10.6953 7.47412 10.6953H7.47021ZM11.478 5.15625C11.3582 5.15625 11.245 5.13281 11.1382 5.08594C11.0314 5.04167 10.9383 4.97982 10.8589 4.90039C10.7795 4.82096 10.7176 4.72786 10.6733 4.62109C10.6265 4.51432 10.603 4.40104 10.603 4.28125C10.603 4.16146 10.6265 4.04818 10.6733 3.94141C10.7176 3.83464 10.7795 3.74219 10.8589 3.66406C10.9383 3.58594 11.0314 3.52344 11.1382 3.47656C11.245 3.42969 11.3582 3.40625 11.478 3.40625C11.5978 3.40625 11.7111 3.42969 11.8179 3.47656C11.9246 3.52344 12.0171 3.58594 12.0952 3.66406C12.1733 3.74219 12.2358 3.83464 12.2827 3.94141C12.327 4.04818 12.3491 4.16146 12.3491 4.28125C12.3491 4.40104 12.327 4.51432 12.2827 4.62109C12.2358 4.72786 12.1733 4.82096 12.0952 4.90039C12.0171 4.97982 11.9246 5.04167 11.8179 5.08594C11.7111 5.13281 11.5978 5.15625 11.478 5.15625ZM13.7358 2.02344C13.5405 1.82031 13.3257 1.64193 13.0913 1.48828C12.8543 1.33203 12.6024 1.20247 12.3354 1.09961C12.0685 0.996745 11.7866 0.919271 11.4897 0.867188C11.1955 0.815104 10.8908 0.789062 10.5757 0.789062H4.36865C3.71501 0.789062 3.11995 0.893229 2.5835 1.10156C2.04443 1.3099 1.58415 1.60547 1.20264 1.98828C0.821126 2.37109 0.526204 2.83073 0.317871 3.36719C0.106934 3.90365 0.00146484 4.5 0.00146484 5.15625V11.3281C0.00146484 11.6536 0.0288086 11.9661 0.0834961 12.2656C0.135579 12.5651 0.214355 12.8503 0.319824 13.1211C0.425293 13.3919 0.556152 13.6471 0.712402 13.8867C0.871257 14.1263 1.05615 14.3477 1.26709 14.5508C1.47021 14.7461 1.69027 14.918 1.92725 15.0664C2.16162 15.2122 2.41097 15.334 2.67529 15.4316C2.93962 15.5293 3.21631 15.6029 3.50537 15.6523C3.79183 15.7018 4.09001 15.7266 4.3999 15.7266H10.5444C10.8674 15.7266 11.1772 15.7005 11.4741 15.6484C11.771 15.5964 12.0522 15.5208 12.3179 15.4219C12.5835 15.3229 12.8322 15.2005 13.064 15.0547C13.2957 14.9062 13.5093 14.7383 13.7046 14.5508C13.9077 14.3555 14.0874 14.1406 14.2437 13.9062C14.3973 13.6693 14.5256 13.416 14.6284 13.1465C14.7313 12.877 14.8088 12.5924 14.8608 12.293C14.9155 11.9935 14.9429 11.6823 14.9429 11.3594V5.15625C14.9429 4.83854 14.9168 4.53385 14.8647 4.24219C14.8127 3.95052 14.7352 3.67253 14.6323 3.4082C14.5295 3.14388 14.4038 2.89583 14.2554 2.66406C14.1043 2.43229 13.9312 2.21875 13.7358 2.02344ZM13.6147 11.3594C13.6147 11.5938 13.5952 11.8151 13.5562 12.0234C13.5145 12.2344 13.4565 12.4323 13.3823 12.6172C13.3081 12.8021 13.2163 12.9727 13.1069 13.1289C13.0002 13.2878 12.8791 13.431 12.7437 13.5586C12.6082 13.6862 12.4598 13.7982 12.2983 13.8945C12.1369 13.9935 11.9637 14.0755 11.7788 14.1406C11.5939 14.2057 11.3986 14.2552 11.1929 14.2891C10.9871 14.3229 10.771 14.3398 10.5444 14.3398H4.3999C4.17334 14.3398 3.95719 14.3229 3.75146 14.2891C3.54574 14.2552 3.35042 14.2057 3.16553 14.1406C2.98063 14.0755 2.80745 13.9935 2.646 13.8945C2.48454 13.7982 2.3361 13.6862 2.20068 13.5586C2.06527 13.4232 1.94678 13.2747 1.84521 13.1133C1.74365 12.9518 1.65902 12.778 1.59131 12.5918C1.5236 12.4056 1.47282 12.207 1.43896 11.9961C1.40511 11.7852 1.38818 11.5625 1.38818 11.3281V5.15625C1.38818 4.92969 1.40511 4.71354 1.43896 4.50781C1.47282 4.29948 1.5236 4.10352 1.59131 3.91992C1.65902 3.73633 1.74365 3.5638 1.84521 3.40234C1.94678 3.24089 2.06527 3.09245 2.20068 2.95703C2.32829 2.82943 2.47282 2.71615 2.63428 2.61719C2.79313 2.52083 2.96631 2.43945 3.15381 2.37305C3.34131 2.30664 3.53923 2.25651 3.74756 2.22266C3.95589 2.1888 4.17334 2.17188 4.3999 2.17188H10.603C10.8296 2.17188 11.0457 2.1888 11.2515 2.22266C11.4598 2.25651 11.6558 2.30729 11.8394 2.375C12.0229 2.44271 12.1955 2.52734 12.3569 2.62891C12.5184 2.73047 12.6668 2.85026 12.8022 2.98828C12.9299 3.1237 13.0444 3.27083 13.146 3.42969C13.2476 3.59115 13.3328 3.76302 13.4019 3.94531C13.4709 4.1276 13.5236 4.32031 13.5601 4.52344C13.5965 4.72656 13.6147 4.9375 13.6147 5.15625V11.3594Z" fill="#707070"/>
</g>
</g>
<defs>
<clipPath id="clip0_69_169">
<rect width="16.2031" height="16" fill="white" transform="translate(0 0.546875)"/>
</clipPath>
<clipPath id="clip1_69_169">
<rect width="16.2031" height="16" fill="white" transform="matrix(1 0 0 -1 0 16.5469)"/>
</clipPath>
</defs>
</svg>
