<svg width="24" height="25" viewBox="0 0 24 25" fill="none" xmlns="http://www.w3.org/2000/svg">
<g clip-path="url(#clip0_69_385)">
<path d="M12 1.94141C12 1.74219 11.9297 1.57227 11.7891 1.43164C11.6484 1.29102 11.4785 1.2207 11.2793 1.2207C11.0801 1.2207 10.9102 1.29102 10.7695 1.43164C10.6289 1.57227 10.5586 1.74219 10.5586 1.94141V11.7793H0.720703C0.521484 11.7793 0.351562 11.8496 0.210938 11.9902C0.0703125 12.1309 0 12.3008 0 12.5C0 12.6992 0.0703125 12.8691 0.210938 13.0098C0.351562 13.1504 0.521484 13.2207 0.720703 13.2207H10.5586V23.0586C10.5586 23.2578 10.6289 23.4277 10.7695 23.5684C10.9102 23.709 11.0801 23.7793 11.2793 23.7793C11.4785 23.7793 11.6484 23.709 11.7891 23.5684C11.9297 23.4277 12 23.2578 12 23.0586V13.2207H21.8438C22.0391 13.2207 22.207 13.1504 22.3477 13.0098C22.4883 12.8691 22.5586 12.6992 22.5586 12.5C22.5586 12.3008 22.4883 12.1309 22.3477 11.9902C22.207 11.8496 22.0391 11.7793 21.8438 11.7793H12V1.94141Z" fill="white"/>
</g>
<defs>
<clipPath id="clip0_69_385">
<rect width="24" height="25" fill="white"/>
</clipPath>
</defs>
</svg>
