<svg width="17" height="17" viewBox="0 0 17 17" fill="none" xmlns="http://www.w3.org/2000/svg">
<g clip-path="url(#clip0_69_168)">
<g clip-path="url(#clip1_69_168)">
<path d="M15.8413 4.99219C15.8413 4.99219 15.8491 5.06641 15.8647 5.21484C15.883 5.36589 15.9019 5.56315 15.9214 5.80664C15.9409 6.05013 15.9598 6.32812 15.978 6.64062C15.9937 6.95312 16.0015 7.27214 16.0015 7.59766V8.82031C16.0015 9.14844 15.9937 9.46875 15.978 9.78125C15.9598 10.0938 15.9409 10.3717 15.9214 10.6152C15.9019 10.8587 15.883 11.056 15.8647 11.207C15.8491 11.3555 15.8413 11.4297 15.8413 11.4297C15.8413 11.4297 15.8309 11.4896 15.8101 11.6094C15.7892 11.7318 15.7541 11.8776 15.7046 12.0469C15.6551 12.2161 15.5887 12.3919 15.5054 12.5742C15.4246 12.7565 15.3244 12.9089 15.2046 13.0312C15.0535 13.1901 14.8999 13.3138 14.7437 13.4023C14.5874 13.4883 14.4377 13.5527 14.2944 13.5957C14.1512 13.6387 14.0197 13.6667 13.8999 13.6797C13.7801 13.6927 13.6812 13.7031 13.603 13.7109C13.0431 13.7526 12.4364 13.7852 11.7827 13.8086C11.1291 13.8294 10.5223 13.8457 9.9624 13.8574C9.40251 13.8691 8.93506 13.875 8.56006 13.875C8.18766 13.8776 8.00146 13.8789 8.00146 13.8789C8.00146 13.8789 7.77751 13.8763 7.32959 13.8711C6.88428 13.8659 6.36149 13.8574 5.76123 13.8457C5.16097 13.834 4.55745 13.8177 3.95068 13.7969C3.34391 13.776 2.88037 13.75 2.56006 13.7188C2.47152 13.7005 2.35824 13.6849 2.22021 13.6719C2.08219 13.6589 1.93311 13.6315 1.77295 13.5898C1.61279 13.5482 1.44808 13.4844 1.27881 13.3984C1.10954 13.3125 0.949382 13.1888 0.79834 13.0273C0.678548 12.9049 0.576986 12.7539 0.493652 12.5742C0.412923 12.3919 0.347819 12.2161 0.29834 12.0469C0.248861 11.8776 0.213704 11.7318 0.192871 11.6094C0.172038 11.4896 0.161621 11.4297 0.161621 11.4297C0.161621 11.4297 0.153809 11.3555 0.138184 11.207C0.119954 11.056 0.101074 10.8587 0.081543 10.6152C0.0620117 10.3717 0.0431315 10.0938 0.0249023 9.78125C0.00927734 9.46875 0.00146484 9.14844 0.00146484 8.82031V7.59766C0.00146484 7.27214 0.00927734 6.95312 0.0249023 6.64062C0.0431315 6.33073 0.0620117 6.05339 0.081543 5.80859C0.101074 5.5638 0.119954 5.36589 0.138184 5.21484C0.153809 5.06641 0.161621 4.99219 0.161621 4.99219C0.161621 4.99219 0.172038 4.93229 0.192871 4.8125C0.213704 4.6901 0.248861 4.54427 0.29834 4.375C0.347819 4.20573 0.412923 4.02995 0.493652 3.84766C0.576986 3.66536 0.678548 3.51302 0.79834 3.39062C0.949382 3.23177 1.10303 3.10807 1.25928 3.01953C1.41813 2.93099 1.56852 2.86589 1.71045 2.82422C1.85238 2.78255 1.98324 2.75521 2.10303 2.74219C2.22282 2.72917 2.32178 2.71875 2.3999 2.71094C2.9598 2.66927 3.56657 2.63802 4.22021 2.61719C4.87386 2.59375 5.48063 2.57682 6.04053 2.56641C6.60042 2.55599 7.06657 2.55078 7.43896 2.55078C7.81136 2.54818 7.99756 2.54688 7.99756 2.54688H8.00537C8.00537 2.54688 8.19157 2.54818 8.56396 2.55078C8.93636 2.55078 9.40251 2.55599 9.9624 2.56641C10.5223 2.57682 11.1291 2.59375 11.7827 2.61719C12.4364 2.63802 13.0431 2.66927 13.603 2.71094C13.6812 2.71875 13.7801 2.72917 13.8999 2.74219C14.0197 2.75521 14.1506 2.78255 14.2925 2.82422C14.4344 2.86589 14.5848 2.93099 14.7437 3.01953C14.8999 3.10807 15.0535 3.23177 15.2046 3.39062C15.3244 3.51302 15.4259 3.66536 15.5093 3.84766C15.59 4.02995 15.6551 4.20573 15.7046 4.375C15.7541 4.54427 15.7892 4.6901 15.8101 4.8125C15.8309 4.93229 15.8413 4.99219 15.8413 4.99219ZM6.34912 10.3047L10.6733 8.04688L6.34912 5.77734V10.3047Z" fill="#707070"/>
</g>
</g>
<defs>
<clipPath id="clip0_69_168">
<rect width="16.2031" height="16" fill="white" transform="translate(0 0.546875)"/>
</clipPath>
<clipPath id="clip1_69_168">
<rect width="16.2031" height="16" fill="white" transform="matrix(1 0 0 -1 0 16.5469)"/>
</clipPath>
</defs>
</svg>
